<svg width="20" height="20" viewBox="0 0 20 20" fill="none" xmlns="http://www.w3.org/2000/svg">
<path d="M7.2988 17.5313L9.1821 15.947C9.465 15.7045 9.9338 15.7045 10.2167 15.947L12.1 17.5313C12.5365 17.7495 13.0699 17.5313 13.2316 17.0625L13.5872 15.9874C13.6761 15.7288 13.5872 15.3489 13.3933 15.1549L11.5585 13.312C11.421 13.1827 11.316 12.9241 11.316 12.7381V10.4345C11.316 10.0951 11.5665 9.93341 11.8818 10.0627L15.8504 11.7763C16.4728 12.043 16.982 11.7116 16.982 11.0327V9.98999C16.982 9.44844 16.5779 8.82606 16.0767 8.61591L11.5585 6.66795C11.4291 6.61137 11.316 6.44163 11.316 6.29614V3.87129C11.316 3.1115 10.7583 2.21431 10.0793 1.86675C9.83681 1.74551 9.55391 1.74551 9.31143 1.86675C8.63247 2.21431 8.07475 3.11959 8.07475 3.87937V6.30422C8.07475 6.44971 7.96159 6.61945 7.83227 6.67603L3.32205 8.62399C2.82092 8.82606 2.41678 9.44844 2.41678 9.98999V11.0327C2.41678 11.7116 2.926 12.043 3.54837 11.7763L7.51704 10.0627C7.82419 9.92532 8.08284 10.0951 8.08284 10.4345V12.7381C8.08284 12.9241 7.97776 13.1827 7.84844 13.312L6.01363 15.1549C5.81965 15.3489 5.73074 15.7207 5.81965 15.9874L6.17529 17.0625C6.32078 17.5313 6.85425 17.7576 7.2988 17.5313Z" stroke="#292D32" stroke-width="1.21242" stroke-linecap="round" stroke-linejoin="round"/>
</svg>
