<svg width="24" height="27" viewBox="0 0 24 27" fill="none" xmlns="http://www.w3.org/2000/svg">
<g clip-path="url(#clip0_2_3844)">
<path d="M1.5 2.24738L7.50525 2.24741V0.752655C7.50525 0.33828 7.84088 0.00265503 8.25525 0.00265503C8.66963 0.00265503 9.00525 0.33828 9.00525 0.752655V2.24703H15.0052V0.752655C15.0052 0.33828 15.3409 0.00265503 15.7552 0.00265503C16.1696 0.00265503 16.5052 0.33828 16.5052 0.752655V2.24703H22.5C23.3284 2.24703 24 2.91865 24 3.74703V22.497C24 23.3254 23.3284 23.997 22.5 23.997H1.5C0.671625 23.997 0 23.3254 0 22.497V3.74703C0 2.91901 0.671625 2.24738 1.5 2.24738ZM1.5 22.497H22.5V3.74703H16.5052V4.50266C16.5052 4.91701 16.1696 5.25266 15.7552 5.25266C15.3409 5.25266 15.0052 4.91701 15.0052 4.50266V3.74741H9.00525V4.50303C9.00525 4.9174 8.66963 5.25303 8.25525 5.25303C7.84088 5.25303 7.50525 4.9174 7.50525 4.50303V3.74741H1.5V22.497ZM6.75 11.9974H5.25C4.836 11.9974 4.5 11.6614 4.5 11.2474V9.74738C4.5 9.33338 4.836 8.99738 5.25 8.99738H6.75C7.164 8.99738 7.5 9.33338 7.5 9.74738V11.2474C7.5 11.6614 7.164 11.9974 6.75 11.9974ZM6.75 17.997H5.25C4.836 17.997 4.5 17.6614 4.5 17.247V15.747C4.5 15.333 4.836 14.997 5.25 14.997H6.75C7.164 14.997 7.5 15.333 7.5 15.747V17.247C7.5 17.6618 7.164 17.997 6.75 17.997ZM11.25 14.997H12.75C13.164 14.997 13.5 15.333 13.5 15.747V17.247C13.5 17.6614 13.164 17.997 12.75 17.997H11.25C10.836 17.997 10.5 17.6614 10.5 17.247V15.747C10.5 15.3334 10.836 14.997 11.25 14.997ZM11.25 8.99738H12.75C13.164 8.99738 13.5 9.33338 13.5 9.74738V11.2474C13.5 11.6614 13.164 11.9974 12.75 11.9974H11.25C10.836 11.9974 10.5 11.6614 10.5 11.2474V9.74738C10.5 9.33301 10.836 8.99738 11.25 8.99738ZM17.25 8.99738H18.75C19.164 8.99738 19.5 9.33338 19.5 9.74738V11.2474C19.5 11.6614 19.164 11.9974 18.75 11.9974H17.25C16.836 11.9974 16.5 11.6614 16.5 11.2474V9.74738C16.5 9.33301 16.836 8.99738 17.25 8.99738ZM17.25 14.997H18.75C19.164 14.997 19.5 15.333 19.5 15.747V17.247C19.5 17.6614 19.164 17.997 18.75 17.997H17.25C16.836 17.997 16.5 17.6614 16.5 17.247V15.747C16.5 15.3334 16.836 14.997 17.25 14.997Z" fill="#A7A7A7"/>
</g>
<path d="M11.6484 24.7734C11.6484 24.9675 11.8059 25.125 12 25.125C12.1941 25.125 12.3516 24.9675 12.3516 24.7734C12.3516 24.5794 12.1941 24.4219 12 24.4219C11.8059 24.4219 11.6484 24.5794 11.6484 24.7734Z" stroke="#A7A7A7" stroke-width="0.0527344" stroke-linecap="round" stroke-linejoin="round"/>
<path d="M11.8696 24.8852L11.9785 24.8202C11.9975 24.809 12.013 24.7819 12.013 24.7597V24.6156" stroke="#A7A7A7" stroke-width="0.0527344" stroke-linecap="round" stroke-linejoin="round"/>
<path d="M13.7803 25.4568C13.7803 25.4495 13.7815 25.4431 13.7837 25.4375C13.7858 25.4319 13.7896 25.4268 13.795 25.4221C13.8004 25.4175 13.8081 25.413 13.8181 25.4087C13.8278 25.4042 13.8403 25.3996 13.8556 25.395C13.8722 25.3899 13.8876 25.3842 13.9017 25.3779C13.9156 25.3715 13.9278 25.3641 13.9382 25.3558C13.9487 25.3473 13.9567 25.3376 13.9625 25.3267C13.9683 25.3157 13.9712 25.3029 13.9712 25.2885C13.9712 25.2743 13.9682 25.2613 13.9623 25.2496C13.9562 25.2379 13.9476 25.2278 13.9366 25.2193C13.9253 25.2107 13.9121 25.204 13.8969 25.1994C13.8817 25.1946 13.8649 25.1922 13.8464 25.1922C13.8205 25.1922 13.7981 25.197 13.7794 25.2066C13.7605 25.2162 13.746 25.2291 13.7359 25.2453C13.7256 25.2614 13.7205 25.2793 13.7205 25.2989H13.7803C13.7803 25.2873 13.7828 25.2771 13.7878 25.2683C13.7926 25.2594 13.8 25.2523 13.8099 25.2472C13.8197 25.2421 13.8321 25.2395 13.8472 25.2395C13.8614 25.2395 13.8733 25.2417 13.8827 25.246C13.8922 25.2503 13.8992 25.2562 13.9039 25.2635C13.9085 25.2709 13.9108 25.2792 13.9108 25.2885C13.9108 25.2951 13.9093 25.3011 13.9063 25.3065C13.9032 25.3118 13.8986 25.3168 13.8923 25.3214C13.8861 25.3259 13.8782 25.3302 13.8688 25.3342C13.8593 25.3382 13.8482 25.342 13.8354 25.3457C13.816 25.3515 13.7991 25.3579 13.7847 25.3649C13.7702 25.3718 13.7582 25.3797 13.7486 25.3885C13.739 25.3973 13.7318 25.4073 13.727 25.4185C13.7222 25.4296 13.7198 25.4422 13.7198 25.4563C13.7198 25.471 13.7227 25.4843 13.7287 25.4962C13.7346 25.5079 13.7431 25.5179 13.7541 25.5262C13.765 25.5344 13.7782 25.5407 13.7936 25.5452C13.8088 25.5495 13.8258 25.5517 13.8445 25.5517C13.8613 25.5517 13.8779 25.5494 13.8943 25.545C13.9104 25.5405 13.9252 25.5337 13.9385 25.5245C13.9518 25.5152 13.9623 25.5037 13.9702 25.4899C13.9781 25.476 13.982 25.4597 13.982 25.4411H13.9217C13.9217 25.4525 13.9197 25.4622 13.9159 25.4702C13.9119 25.4782 13.9064 25.4848 13.8993 25.4899C13.8923 25.4949 13.8841 25.4986 13.8748 25.501C13.8653 25.5034 13.8552 25.5046 13.8445 25.5046C13.8304 25.5046 13.8186 25.5026 13.8092 25.4986C13.7996 25.4946 13.7924 25.489 13.7876 25.4817C13.7827 25.4745 13.7803 25.4662 13.7803 25.4568ZM13.566 25.5055C13.5565 25.5055 13.548 25.5037 13.5405 25.5C13.5328 25.4962 13.5266 25.4909 13.522 25.4841C13.5172 25.4774 13.5145 25.4697 13.5141 25.4608H13.4595C13.4598 25.4777 13.4648 25.493 13.4744 25.5067C13.484 25.5205 13.4968 25.5315 13.5126 25.5397C13.5285 25.5477 13.546 25.5517 13.5653 25.5517C13.5851 25.5517 13.6024 25.5483 13.6172 25.5416C13.6319 25.5347 13.6442 25.5252 13.6539 25.5132C13.6637 25.5012 13.6711 25.4874 13.676 25.4717C13.6808 25.456 13.6833 25.4391 13.6833 25.4212V25.4128C13.6833 25.3948 13.6808 25.378 13.676 25.3623C13.6711 25.3464 13.6637 25.3325 13.6539 25.3205C13.6442 25.3085 13.6319 25.2991 13.6172 25.2924C13.6024 25.2855 13.5852 25.282 13.5655 25.282C13.5447 25.282 13.5264 25.2862 13.5107 25.2945C13.495 25.3027 13.4827 25.3142 13.4737 25.3289C13.4646 25.3435 13.4598 25.3605 13.4595 25.3798H13.5141C13.5145 25.3702 13.5169 25.3616 13.5213 25.3539C13.5254 25.346 13.5314 25.3398 13.5391 25.3351C13.5466 25.3305 13.5556 25.3282 13.5662 25.3282C13.5779 25.3282 13.5876 25.3306 13.5953 25.3354C13.603 25.34 13.609 25.3464 13.6133 25.3546C13.6176 25.3626 13.6208 25.3717 13.6227 25.3818C13.6245 25.3917 13.6253 25.402 13.6253 25.4128V25.4212C13.6253 25.4319 13.6245 25.4423 13.6227 25.4524C13.6209 25.4625 13.6179 25.4716 13.6136 25.4796C13.6091 25.4874 13.603 25.4938 13.5953 25.4986C13.5876 25.5032 13.5778 25.5055 13.566 25.5055ZM13.3578 25.1777V25.5469H13.4155V25.1777H13.3578ZM13.3679 25.4072L13.3867 25.407C13.3865 25.3891 13.384 25.3725 13.3792 25.3573C13.3743 25.342 13.3674 25.3288 13.3586 25.3176C13.3496 25.3062 13.3389 25.2975 13.3264 25.2914C13.3139 25.2852 13.3 25.282 13.2848 25.282C13.272 25.282 13.2604 25.2838 13.2502 25.2873C13.2398 25.2908 13.2308 25.2965 13.2233 25.3044C13.2157 25.3121 13.21 25.3222 13.2062 25.3347C13.2022 25.347 13.2002 25.3621 13.2002 25.3798V25.5469H13.2584V25.3794C13.2584 25.3669 13.2602 25.3569 13.2639 25.3496C13.2674 25.3422 13.2726 25.3369 13.2795 25.3337C13.2864 25.3303 13.2948 25.3287 13.3047 25.3287C13.3152 25.3287 13.3244 25.3307 13.3324 25.3349C13.3402 25.3391 13.3468 25.3448 13.3521 25.352C13.3574 25.3592 13.3614 25.3675 13.3641 25.377C13.3667 25.3864 13.3679 25.3965 13.3679 25.4072ZM13.0269 25.5517C13.0461 25.5517 13.0635 25.5486 13.0791 25.5423C13.0945 25.5359 13.1076 25.527 13.1185 25.5156C13.1292 25.5043 13.1375 25.4909 13.1432 25.4755C13.149 25.4601 13.1519 25.4435 13.1519 25.4258V25.4161C13.1519 25.3958 13.1489 25.3774 13.143 25.3609C13.1371 25.3444 13.1288 25.3303 13.1182 25.3186C13.1077 25.3067 13.0952 25.2977 13.0808 25.2914C13.0663 25.2852 13.0507 25.282 13.0339 25.282C13.0153 25.282 12.999 25.2852 12.9851 25.2914C12.9712 25.2977 12.9596 25.3065 12.9505 25.3178C12.9412 25.3291 12.9343 25.3424 12.9298 25.358C12.9252 25.3735 12.9229 25.3907 12.9229 25.4094V25.4342H13.1238V25.3926H12.9801V25.388C12.9804 25.3776 12.9825 25.3678 12.9863 25.3587C12.99 25.3496 12.9957 25.3422 13.0034 25.3366C13.0111 25.331 13.0213 25.3282 13.0341 25.3282C13.0437 25.3282 13.0523 25.3303 13.0598 25.3344C13.0672 25.3384 13.0734 25.3443 13.0783 25.352C13.0833 25.3597 13.0872 25.369 13.0899 25.3798C13.0924 25.3906 13.0937 25.4027 13.0937 25.4161V25.4258C13.0937 25.4371 13.0922 25.4477 13.0892 25.4575C13.086 25.4671 13.0813 25.4755 13.0752 25.4827C13.0691 25.4899 13.0618 25.4956 13.0531 25.4998C13.0445 25.5038 13.0346 25.5058 13.0236 25.5058C13.0096 25.5058 12.9972 25.503 12.9863 25.4974C12.9754 25.4918 12.966 25.4838 12.9579 25.4736L12.9274 25.5031C12.933 25.5113 12.9403 25.5192 12.9493 25.5267C12.9583 25.5341 12.9692 25.5401 12.9822 25.5447C12.995 25.5494 13.0099 25.5517 13.0269 25.5517ZM12.7191 25.493V25.1777H12.6609V25.5469H12.7135L12.7191 25.493ZM12.8883 25.4197V25.4147C12.8883 25.395 12.8859 25.377 12.8813 25.3609C12.8766 25.3445 12.8699 25.3305 12.8611 25.3188C12.8523 25.3069 12.8415 25.2979 12.8289 25.2916C12.8162 25.2852 12.802 25.282 12.7861 25.282C12.7704 25.282 12.7566 25.2851 12.7448 25.2912C12.7329 25.2973 12.7228 25.306 12.7145 25.3174C12.7062 25.3286 12.6995 25.342 12.6945 25.3577C12.6896 25.3733 12.6861 25.3906 12.684 25.4096V25.4258C12.6861 25.4443 12.6896 25.4613 12.6945 25.4767C12.6995 25.4921 12.7062 25.5054 12.7145 25.5166C12.7228 25.5278 12.733 25.5365 12.745 25.5425C12.7569 25.5486 12.7707 25.5517 12.7866 25.5517C12.8023 25.5517 12.8165 25.5484 12.8291 25.5418C12.8416 25.5353 12.8523 25.526 12.8611 25.5142C12.8699 25.5023 12.8766 25.4884 12.8813 25.4724C12.8859 25.4562 12.8883 25.4386 12.8883 25.4197ZM12.8303 25.4147V25.4197C12.8303 25.4316 12.8293 25.4427 12.8272 25.4529C12.825 25.4632 12.8215 25.4722 12.8169 25.4801C12.8122 25.4878 12.8062 25.4938 12.7989 25.4983C12.7913 25.5027 12.7823 25.5048 12.7719 25.5048C12.7588 25.5048 12.748 25.5019 12.7395 25.4962C12.731 25.4904 12.7243 25.4826 12.7195 25.4729C12.7146 25.4629 12.7112 25.4519 12.7094 25.4397V25.3962C12.7104 25.3867 12.7124 25.3779 12.7155 25.3698C12.7183 25.3616 12.7223 25.3545 12.7272 25.3484C12.7322 25.3421 12.7384 25.3373 12.7457 25.3339C12.7529 25.3304 12.7615 25.3287 12.7715 25.3287C12.782 25.3287 12.791 25.3309 12.7984 25.3354C12.8057 25.3399 12.8118 25.346 12.8166 25.3539C12.8213 25.3617 12.8247 25.3709 12.827 25.3813C12.8292 25.3917 12.8303 25.4028 12.8303 25.4147ZM12.4439 25.4856V25.2868H12.3857V25.5469H12.4405L12.4439 25.4856ZM12.4357 25.4315L12.4163 25.431C12.4163 25.4485 12.4182 25.4646 12.422 25.4793C12.4259 25.4939 12.4318 25.5067 12.4398 25.5176C12.4478 25.5283 12.4581 25.5367 12.4706 25.5428C12.4831 25.5487 12.498 25.5517 12.5155 25.5517C12.5282 25.5517 12.5398 25.5498 12.5504 25.5462C12.5609 25.5425 12.5701 25.5368 12.5778 25.5291C12.5853 25.5214 12.5911 25.5114 12.5953 25.4991C12.5995 25.4867 12.6015 25.472 12.6015 25.4548V25.2868H12.5436V25.4553C12.5436 25.4648 12.5425 25.4727 12.5403 25.4791C12.538 25.4854 12.535 25.4904 12.5311 25.4942C12.5273 25.4981 12.5228 25.5008 12.5177 25.5024C12.5125 25.504 12.5071 25.5048 12.5013 25.5048C12.4848 25.5048 12.4718 25.5016 12.4624 25.4952C12.4528 25.4886 12.446 25.4798 12.442 25.4688C12.4378 25.4577 12.4357 25.4453 12.4357 25.4315ZM12.2644 25.1777V25.5469H12.3225V25.1777H12.2644ZM12.0863 25.5517C12.1055 25.5517 12.1229 25.5486 12.1384 25.5423C12.1538 25.5359 12.167 25.527 12.1778 25.5156C12.1886 25.5043 12.1968 25.4909 12.2026 25.4755C12.2084 25.4601 12.2113 25.4435 12.2113 25.4258V25.4161C12.2113 25.3958 12.2083 25.3774 12.2024 25.3609C12.1964 25.3444 12.1882 25.3303 12.1776 25.3186C12.167 25.3067 12.1545 25.2977 12.1401 25.2914C12.1257 25.2852 12.1101 25.282 12.0933 25.282C12.0747 25.282 12.0584 25.2852 12.0445 25.2914C12.0305 25.2977 12.019 25.3065 12.0099 25.3178C12.0006 25.3291 11.9937 25.3424 11.9892 25.358C11.9845 25.3735 11.9822 25.3907 11.9822 25.4094V25.4342H12.1831V25.3926H12.0394V25.388C12.0397 25.3776 12.0418 25.3678 12.0457 25.3587C12.0494 25.3496 12.055 25.3422 12.0627 25.3366C12.0704 25.331 12.0807 25.3282 12.0935 25.3282C12.1031 25.3282 12.1117 25.3303 12.1192 25.3344C12.1266 25.3384 12.1327 25.3443 12.1377 25.352C12.1427 25.3597 12.1465 25.369 12.1492 25.3798C12.1518 25.3906 12.1531 25.4027 12.1531 25.4161V25.4258C12.1531 25.4371 12.1516 25.4477 12.1485 25.4575C12.1453 25.4671 12.1407 25.4755 12.1346 25.4827C12.1285 25.4899 12.1211 25.4956 12.1125 25.4998C12.1038 25.5038 12.094 25.5058 12.0829 25.5058C12.069 25.5058 12.0566 25.503 12.0457 25.4974C12.0348 25.4918 12.0253 25.4838 12.0173 25.4736L11.9868 25.5031C11.9924 25.5113 11.9997 25.5192 12.0087 25.5267C12.0176 25.5341 12.0286 25.5401 12.0416 25.5447C12.0544 25.5494 12.0693 25.5517 12.0863 25.5517ZM11.6559 25.493V25.1777H11.5977V25.5469H11.6503L11.6559 25.493ZM11.825 25.4197V25.4147C11.825 25.395 11.8227 25.377 11.8181 25.3609C11.8134 25.3445 11.8067 25.3305 11.7979 25.3188C11.7891 25.3069 11.7783 25.2979 11.7657 25.2916C11.753 25.2852 11.7388 25.282 11.7229 25.282C11.7072 25.282 11.6934 25.2851 11.6816 25.2912C11.6697 25.2973 11.6596 25.306 11.6513 25.3174C11.643 25.3286 11.6363 25.342 11.6313 25.3577C11.6264 25.3733 11.6229 25.3906 11.6208 25.4096V25.4258C11.6229 25.4443 11.6264 25.4613 11.6313 25.4767C11.6363 25.4921 11.643 25.5054 11.6513 25.5166C11.6596 25.5278 11.6698 25.5365 11.6818 25.5425C11.6937 25.5486 11.7075 25.5517 11.7234 25.5517C11.7391 25.5517 11.7533 25.5484 11.7659 25.5418C11.7784 25.5353 11.7891 25.526 11.7979 25.5142C11.8067 25.5023 11.8134 25.4884 11.8181 25.4724C11.8227 25.4562 11.825 25.4386 11.825 25.4197ZM11.7671 25.4147V25.4197C11.7671 25.4316 11.7661 25.4427 11.764 25.4529C11.7618 25.4632 11.7583 25.4722 11.7537 25.4801C11.749 25.4878 11.743 25.4938 11.7356 25.4983C11.7281 25.5027 11.7191 25.5048 11.7087 25.5048C11.6956 25.5048 11.6848 25.5019 11.6763 25.4962C11.6678 25.4904 11.6611 25.4826 11.6563 25.4729C11.6514 25.4629 11.648 25.4519 11.6462 25.4397V25.3962C11.6472 25.3867 11.6492 25.3779 11.6523 25.3698C11.6551 25.3616 11.6591 25.3545 11.664 25.3484C11.669 25.3421 11.6752 25.3373 11.6825 25.3339C11.6897 25.3304 11.6983 25.3287 11.7083 25.3287C11.7188 25.3287 11.7278 25.3309 11.7352 25.3354C11.7425 25.3399 11.7486 25.346 11.7534 25.3539C11.7581 25.3617 11.7615 25.3709 11.7638 25.3813C11.766 25.3917 11.7671 25.4028 11.7671 25.4147ZM11.4225 25.5517C11.4417 25.5517 11.4591 25.5486 11.4747 25.5423C11.49 25.5359 11.5032 25.527 11.5141 25.5156C11.5248 25.5043 11.5331 25.4909 11.5388 25.4755C11.5446 25.4601 11.5475 25.4435 11.5475 25.4258V25.4161C11.5475 25.3958 11.5445 25.3774 11.5386 25.3609C11.5327 25.3444 11.5244 25.3303 11.5138 25.3186C11.5033 25.3067 11.4908 25.2977 11.4763 25.2914C11.4619 25.2852 11.4463 25.282 11.4295 25.282C11.4109 25.282 11.3946 25.2852 11.3807 25.2914C11.3667 25.2977 11.3552 25.3065 11.3461 25.3178C11.3368 25.3291 11.3299 25.3424 11.3254 25.358C11.3208 25.3735 11.3184 25.3907 11.3184 25.4094V25.4342H11.5194V25.3926H11.3756V25.388C11.376 25.3776 11.378 25.3678 11.3819 25.3587C11.3856 25.3496 11.3913 25.3422 11.399 25.3366C11.4066 25.331 11.4169 25.3282 11.4297 25.3282C11.4393 25.3282 11.4479 25.3303 11.4554 25.3344C11.4628 25.3384 11.469 25.3443 11.4739 25.352C11.4789 25.3597 11.4827 25.369 11.4855 25.3798C11.488 25.3906 11.4893 25.4027 11.4893 25.4161V25.4258C11.4893 25.4371 11.4878 25.4477 11.4847 25.4575C11.4815 25.4671 11.4769 25.4755 11.4708 25.4827C11.4647 25.4899 11.4574 25.4956 11.4487 25.4998C11.44 25.5038 11.4302 25.5058 11.4191 25.5058C11.4052 25.5058 11.3928 25.503 11.3819 25.4974C11.371 25.4918 11.3615 25.4838 11.3535 25.4736L11.323 25.5031C11.3286 25.5113 11.3359 25.5192 11.3449 25.5267C11.3539 25.5341 11.3648 25.5401 11.3778 25.5447C11.3906 25.5494 11.4055 25.5517 11.4225 25.5517ZM11.2113 25.1777V25.5469H11.2694V25.1777H11.2113ZM11.0858 25.2868V25.5469H11.144V25.2868H11.0858ZM11.1478 25.2186C11.1478 25.2098 11.1449 25.2025 11.1392 25.1967C11.1332 25.1908 11.1251 25.1878 11.1146 25.1878C11.1044 25.1878 11.0963 25.1908 11.0904 25.1967C11.0844 25.2025 11.0815 25.2098 11.0815 25.2186C11.0815 25.2272 11.0844 25.2345 11.0904 25.2402C11.0963 25.246 11.1044 25.2489 11.1146 25.2489C11.1251 25.2489 11.1332 25.246 11.1392 25.2402C11.1449 25.2345 11.1478 25.2272 11.1478 25.2186ZM10.9378 25.501L10.8741 25.2868H10.814L10.9044 25.5469H10.9419L10.9378 25.501ZM10.9866 25.2868L10.9217 25.5019L10.9185 25.5469H10.956L11.0469 25.2868H10.9866ZM10.6669 25.5517C10.6861 25.5517 10.7035 25.5486 10.7191 25.5423C10.7344 25.5359 10.7476 25.527 10.7585 25.5156C10.7692 25.5043 10.7775 25.4909 10.7832 25.4755C10.789 25.4601 10.7919 25.4435 10.7919 25.4258V25.4161C10.7919 25.3958 10.7889 25.3774 10.783 25.3609C10.7771 25.3444 10.7688 25.3303 10.7582 25.3186C10.7477 25.3067 10.7352 25.2977 10.7208 25.2914C10.7063 25.2852 10.6907 25.282 10.6739 25.282C10.6553 25.282 10.639 25.2852 10.6251 25.2914C10.6112 25.2977 10.5996 25.3065 10.5905 25.3178C10.5812 25.3291 10.5743 25.3424 10.5698 25.358C10.5652 25.3735 10.5629 25.3907 10.5629 25.4094V25.4342H10.7638V25.3926H10.6201V25.388C10.6204 25.3776 10.6225 25.3678 10.6263 25.3587C10.63 25.3496 10.6357 25.3422 10.6434 25.3366C10.6511 25.331 10.6613 25.3282 10.6741 25.3282C10.6837 25.3282 10.6923 25.3303 10.6998 25.3344C10.7072 25.3384 10.7134 25.3443 10.7183 25.352C10.7233 25.3597 10.7272 25.369 10.7299 25.3798C10.7324 25.3906 10.7337 25.4027 10.7337 25.4161V25.4258C10.7337 25.4371 10.7322 25.4477 10.7292 25.4575C10.726 25.4671 10.7213 25.4755 10.7152 25.4827C10.7091 25.4899 10.7018 25.4956 10.6931 25.4998C10.6845 25.5038 10.6746 25.5058 10.6636 25.5058C10.6496 25.5058 10.6372 25.503 10.6263 25.4974C10.6154 25.4918 10.606 25.4838 10.5979 25.4736L10.5674 25.5031C10.573 25.5113 10.5803 25.5192 10.5893 25.5267C10.5983 25.5341 10.6092 25.5401 10.6222 25.5447C10.635 25.5494 10.6499 25.5517 10.6669 25.5517ZM10.4595 25.3363V25.5469H10.5174V25.2868H10.4622L10.4595 25.3363ZM10.38 25.2852L10.3804 25.339C10.384 25.3384 10.3878 25.3379 10.392 25.3376C10.396 25.3372 10.4 25.3371 10.404 25.3371C10.4139 25.3371 10.4227 25.3385 10.4302 25.3414C10.4377 25.3441 10.4441 25.3481 10.4492 25.3534C10.4541 25.3585 10.458 25.3648 10.4607 25.3722C10.4634 25.3795 10.465 25.3878 10.4655 25.3969L10.4787 25.3979C10.4787 25.3815 10.4771 25.3664 10.4739 25.3525C10.4707 25.3385 10.4659 25.3263 10.4595 25.3157C10.4529 25.3051 10.4448 25.2969 10.435 25.2909C10.4251 25.285 10.4136 25.282 10.4006 25.282C10.3971 25.282 10.3933 25.2824 10.3893 25.283C10.3852 25.2836 10.3821 25.2844 10.38 25.2852ZM10.2639 25.5185L10.1932 25.2868H10.1312L10.2355 25.5865C10.2379 25.5929 10.2411 25.5999 10.2449 25.6074C10.2488 25.615 10.2538 25.6221 10.26 25.6288C10.2661 25.6357 10.2737 25.6412 10.2829 25.6454C10.292 25.6497 10.3031 25.6519 10.316 25.6519C10.3212 25.6519 10.3261 25.6514 10.3309 25.6505C10.3356 25.6497 10.34 25.6488 10.3442 25.6478L10.3444 25.6036C10.3428 25.6038 10.3409 25.6039 10.3386 25.6041C10.3362 25.6042 10.3343 25.6043 10.3329 25.6043C10.3233 25.6043 10.3152 25.6031 10.3088 25.6007C10.3024 25.5985 10.2972 25.5948 10.2932 25.5897C10.289 25.5845 10.2855 25.5776 10.2826 25.569L10.2639 25.5185ZM10.3038 25.2868L10.242 25.4815L10.2317 25.5425L10.2718 25.5529L10.3663 25.2868H10.3038Z" fill="#A7A7A7"/>
<defs>
<clipPath id="clip0_2_3844">
<rect width="24" height="24" fill="white" transform="matrix(-1 0 0 1 24 0)"/>
</clipPath>
</defs>
</svg>
