<svg width="20" height="15" viewBox="0 0 20 15" fill="none" xmlns="http://www.w3.org/2000/svg">
<path d="M0 2.5C0 1.83696 0.263392 1.20107 0.732233 0.732233C1.20107 0.263392 1.83696 0 2.5 0H17.5C18.163 0 18.7989 0.263392 19.2678 0.732233C19.7366 1.20107 20 1.83696 20 2.5V8.75H0V2.5ZM14.375 3.75C14.2092 3.75 14.0503 3.81585 13.9331 3.93306C13.8158 4.05027 13.75 4.20924 13.75 4.375V5.625C13.75 5.79076 13.8158 5.94973 13.9331 6.06694C14.0503 6.18415 14.2092 6.25 14.375 6.25H16.875C17.0408 6.25 17.1997 6.18415 17.3169 6.06694C17.4342 5.94973 17.5 5.79076 17.5 5.625V4.375C17.5 4.20924 17.4342 4.05027 17.3169 3.93306C17.1997 3.81585 17.0408 3.75 16.875 3.75H14.375ZM0 11.25V12.5C0 13.163 0.263392 13.7989 0.732233 14.2678C1.20107 14.7366 1.83696 15 2.5 15H17.5C18.163 15 18.7989 14.7366 19.2678 14.2678C19.7366 13.7989 20 13.163 20 12.5V11.25H0Z" fill="white"/>
</svg>
