<svg width="20" height="20" viewBox="0 0 20 20" fill="none" xmlns="http://www.w3.org/2000/svg">
<path d="M17.7822 6.10224C17.7822 6.6357 17.3457 7.07217 16.8123 7.07217H2.58652C2.05305 7.07217 1.61658 6.6357 1.61658 6.10224V6.09415C1.61658 4.24319 3.1119 2.74786 4.96287 2.74786H14.4279C16.2788 2.74786 17.7822 4.25127 17.7822 6.10224Z" fill="#292D32"/>
<path d="M1.61658 9.25461V13.3041C1.61658 15.1551 3.1119 16.6504 4.96287 16.6504H14.4279C16.2788 16.6504 17.7822 15.147 17.7822 13.296V9.25461C17.7822 8.72114 17.3457 8.28467 16.8123 8.28467H2.58652C2.05305 8.28467 1.61658 8.72114 1.61658 9.25461ZM6.46627 13.9426H4.84971C4.51831 13.9426 4.24349 13.6678 4.24349 13.3364C4.24349 13.005 4.51831 12.7302 4.84971 12.7302H6.46627C6.79767 12.7302 7.07248 13.005 7.07248 13.3364C7.07248 13.6678 6.79767 13.9426 6.46627 13.9426ZM11.7201 13.9426H8.48698C8.15558 13.9426 7.88076 13.6678 7.88076 13.3364C7.88076 13.005 8.15558 12.7302 8.48698 12.7302H11.7201C12.0515 12.7302 12.3263 13.005 12.3263 13.3364C12.3263 13.6678 12.0515 13.9426 11.7201 13.9426Z" fill="#292D32"/>
</svg>
