<svg width="16" height="23" viewBox="0 0 16 23" fill="none" xmlns="http://www.w3.org/2000/svg">
<path fill-rule="evenodd" clip-rule="evenodd" d="M2.28571 1.14286C1.98261 1.14286 1.69192 1.26326 1.47759 1.47759C1.26327 1.69192 1.14286 1.98261 1.14286 2.28571V18.2857C1.14286 18.5888 1.26327 18.8795 1.47759 19.0938C1.69192 19.3082 1.98261 19.4286 2.28571 19.4286H8.57143V20.5714H2.28571C1.67951 20.5714 1.09812 20.3306 0.66947 19.902C0.240816 19.4733 0 18.8919 0 18.2857V2.28571C0 1.6795 0.240816 1.09812 0.66947 0.66947C1.09812 0.240816 1.67951 0 2.28571 0H13.7143C14.3205 0 14.9019 0.240816 15.3305 0.66947C15.7592 1.09812 16 1.6795 16 2.28571V18.2857C16 18.8919 15.7592 19.4733 15.3305 19.902C14.9019 20.3306 14.3205 20.5714 13.7143 20.5714H12V19.4286H13.7143C14.0174 19.4286 14.3081 19.3082 14.5224 19.0938C14.7367 18.8795 14.8571 18.5888 14.8571 18.2857V2.28571C14.8571 1.98261 14.7367 1.69192 14.5224 1.47759C14.3081 1.26326 14.0174 1.14286 13.7143 1.14286H2.28571Z" fill="#3A3A3A"/>
<path fill-rule="evenodd" clip-rule="evenodd" d="M4.57142 4C4.57142 3.84845 4.63162 3.7031 4.73879 3.59594C4.84595 3.48877 4.9913 3.42857 5.14285 3.42857H10.8571C11.0087 3.42857 11.154 3.48877 11.2612 3.59594C11.3684 3.7031 11.4286 3.84845 11.4286 4C11.4286 4.15155 11.3684 4.2969 11.2612 4.40406C11.154 4.51122 11.0087 4.57143 10.8571 4.57143H5.14285C4.9913 4.57143 4.84595 4.51122 4.73879 4.40406C4.63162 4.2969 4.57142 4.15155 4.57142 4ZM2.28571 7.42857C2.28571 7.27702 2.34591 7.13167 2.45307 7.02451C2.56024 6.91734 2.70558 6.85714 2.85713 6.85714H13.1428C13.2944 6.85714 13.4397 6.91734 13.5469 7.02451C13.6541 7.13167 13.7143 7.27702 13.7143 7.42857C13.7143 7.58012 13.6541 7.72547 13.5469 7.83263C13.4397 7.9398 13.2944 8 13.1428 8H2.85713C2.70558 8 2.56024 7.9398 2.45307 7.83263C2.34591 7.72547 2.28571 7.58012 2.28571 7.42857ZM2.28571 9.71428C2.28571 9.56273 2.34591 9.41739 2.45307 9.31022C2.56024 9.20306 2.70558 9.14286 2.85713 9.14286H13.1428C13.2944 9.14286 13.4397 9.20306 13.5469 9.31022C13.6541 9.41739 13.7143 9.56273 13.7143 9.71428C13.7143 9.86584 13.6541 10.0112 13.5469 10.1183C13.4397 10.2255 13.2944 10.2857 13.1428 10.2857H2.85713C2.70558 10.2857 2.56024 10.2255 2.45307 10.1183C2.34591 10.0112 2.28571 9.86584 2.28571 9.71428ZM2.28571 12C2.28571 11.8484 2.34591 11.7031 2.45307 11.5959C2.56024 11.4888 2.70558 11.4286 2.85713 11.4286H13.1428C13.2944 11.4286 13.4397 11.4888 13.5469 11.5959C13.6541 11.7031 13.7143 11.8484 13.7143 12C13.7143 12.1516 13.6541 12.2969 13.5469 12.4041C13.4397 12.5112 13.2944 12.5714 13.1428 12.5714H2.85713C2.70558 12.5714 2.56024 12.5112 2.45307 12.4041C2.34591 12.2969 2.28571 12.1516 2.28571 12ZM10.2857 17.7143C10.5888 17.7143 10.8795 17.5939 11.0938 17.3796C11.3082 17.1652 11.4286 16.8745 11.4286 16.5714C11.4286 16.2683 11.3082 15.9776 11.0938 15.7633C10.8795 15.549 10.5888 15.4286 10.2857 15.4286C9.9826 15.4286 9.69191 15.549 9.47758 15.7633C9.26326 15.9776 9.14285 16.2683 9.14285 16.5714C9.14285 16.8745 9.26326 17.1652 9.47758 17.3796C9.69191 17.5939 9.9826 17.7143 10.2857 17.7143ZM10.2857 18.8571C10.8919 18.8571 11.4733 18.6163 11.9019 18.1877C12.3306 17.759 12.5714 17.1776 12.5714 16.5714C12.5714 15.9652 12.3306 15.3838 11.9019 14.9552C11.4733 14.5265 10.8919 14.2857 10.2857 14.2857C9.6795 14.2857 9.09812 14.5265 8.66946 14.9552C8.24081 15.3838 7.99999 15.9652 7.99999 16.5714C7.99999 17.1776 8.24081 17.759 8.66946 18.1877C9.09812 18.6163 9.6795 18.8571 10.2857 18.8571Z" fill="#3A3A3A"/>
<path fill-rule="evenodd" clip-rule="evenodd" d="M9.71427 17.7143H8.57141V22.8571L10.2857 22L12 22.8571V17.7143H10.8571V21.008L10.2857 20.7223L9.71427 21.008V17.7143Z" fill="#3A3A3A"/>
</svg>
