<svg width="20" height="20" viewBox="0 0 20 20" fill="none" xmlns="http://www.w3.org/2000/svg">
<path d="M13.3528 4.56694L10.8471 2.62706C10.5238 2.30375 9.79638 2.14209 9.31141 2.14209H6.23994C5.27 2.14209 4.21923 2.86954 3.97675 3.83948L2.03687 9.73994C1.63273 10.8715 2.36018 11.8415 3.57261 11.8415H6.80574C7.2907 11.8415 7.69485 12.2456 7.61402 12.8114L7.20988 15.3979C7.04822 16.1254 7.53319 16.9337 8.26064 17.1761C8.90727 17.4186 9.71555 17.0953 10.0389 16.6103L13.3528 11.6798" stroke="#292D32" stroke-width="1.21242" stroke-miterlimit="10"/>
<path d="M17.4751 4.56699V12.4882C17.4751 13.6197 16.9901 14.0239 15.8585 14.0239H15.0502C13.9186 14.0239 13.4337 13.6197 13.4337 12.4882V4.56699C13.4337 3.43539 13.9186 3.03125 15.0502 3.03125H15.8585C16.9901 3.03125 17.4751 3.43539 17.4751 4.56699Z" stroke="#292D32" stroke-width="1.21242" stroke-linecap="round" stroke-linejoin="round"/>
</svg>
