<svg width="20" height="20" viewBox="0 0 20 20" fill="none" xmlns="http://www.w3.org/2000/svg">
<path d="M12.593 9.69913C12.593 11.2995 11.2998 12.5928 9.69939 12.5928C8.09899 12.5928 6.80574 11.2995 6.80574 9.69913C6.80574 8.09873 8.09899 6.80548 9.69939 6.80548C11.2998 6.80548 12.593 8.09873 12.593 9.69913Z" stroke="#292D32" stroke-width="1.21242" stroke-linecap="round" stroke-linejoin="round"/>
<path d="M9.69937 16.3838C12.5526 16.3838 15.2119 14.7026 17.0628 11.7928C17.7903 10.6531 17.7903 8.7375 17.0628 7.59782C15.2119 4.688 12.5526 3.00677 9.69937 3.00677C6.84614 3.00677 4.18689 4.688 2.33592 7.59782C1.60847 8.7375 1.60847 10.6531 2.33592 11.7928C4.18689 14.7026 6.84614 16.3838 9.69937 16.3838Z" stroke="#292D32" stroke-width="1.21242" stroke-linecap="round" stroke-linejoin="round"/>
</svg>
