<svg width="20" height="20" viewBox="0 0 20 20" fill="none" xmlns="http://www.w3.org/2000/svg">
<path d="M11.7443 7.65418L7.65442 11.7441C7.12904 11.2187 6.80572 10.4993 6.80572 9.69913C6.80572 8.09873 8.09897 6.80548 9.69937 6.80548C10.4996 6.80548 11.2189 7.12879 11.7443 7.65418Z" stroke="#292D32" stroke-width="1.21242" stroke-linecap="round" stroke-linejoin="round"/>
<path d="M14.4036 4.66361C12.9891 3.59667 11.3726 3.01471 9.69941 3.01471C6.84617 3.01471 4.18692 4.69594 2.33596 7.60575C1.6085 8.74543 1.6085 10.6611 2.33596 11.8007C2.9745 12.803 3.71812 13.6679 4.5264 14.363" stroke="#292D32" stroke-width="1.21242" stroke-linecap="round" stroke-linejoin="round"/>
<path d="M6.80572 15.7857C7.72716 16.1737 8.70519 16.3838 9.69937 16.3838C12.5526 16.3838 15.2119 14.7026 17.0628 11.7928C17.7903 10.6531 17.7903 8.73746 17.0628 7.59778C16.7961 7.17747 16.5051 6.78142 16.206 6.40961" stroke="#292D32" stroke-width="1.21242" stroke-linecap="round" stroke-linejoin="round"/>
<path d="M12.5365 10.2651C12.3263 11.4048 11.3968 12.3343 10.2571 12.5445" stroke="#292D32" stroke-width="1.21242" stroke-linecap="round" stroke-linejoin="round"/>
<path d="M7.65443 11.744L1.61656 17.7818" stroke="#292D32" stroke-width="1.21242" stroke-linecap="round" stroke-linejoin="round"/>
<path d="M17.7822 1.61639L11.7444 7.65426" stroke="#292D32" stroke-width="1.21242" stroke-linecap="round" stroke-linejoin="round"/>
</svg>
