<svg width="20" height="20" viewBox="0 0 20 20" fill="none" xmlns="http://www.w3.org/2000/svg">
<path d="M17.7822 9.69934C17.7822 5.23762 14.1611 1.61652 9.69938 1.61652C5.23766 1.61652 1.61655 5.23762 1.61655 9.69934C1.61655 14.1611 5.23766 17.7822 9.69938 17.7822" stroke="#292D32" stroke-width="1.21242" stroke-linecap="round" stroke-linejoin="round"/>
<path d="M6.46626 2.42487H7.27454C5.69839 7.14523 5.69839 12.2536 7.27454 16.9739H6.46626" stroke="#292D32" stroke-width="1.21242" stroke-linecap="round" stroke-linejoin="round"/>
<path d="M12.1242 2.42487C12.9083 4.78505 13.3043 7.24223 13.3043 9.69941" stroke="#292D32" stroke-width="1.21242" stroke-linecap="round" stroke-linejoin="round"/>
<path d="M2.42484 12.9325V12.1243C4.78503 12.9083 7.2422 13.3044 9.69938 13.3044" stroke="#292D32" stroke-width="1.21242" stroke-linecap="round" stroke-linejoin="round"/>
<path d="M2.42484 7.27464C7.14521 5.69849 12.2536 5.69849 16.9739 7.27464" stroke="#292D32" stroke-width="1.21242" stroke-linecap="round" stroke-linejoin="round"/>
<path d="M14.7107 17.2972C16.1392 17.2972 17.2972 16.1392 17.2972 14.7107C17.2972 13.2822 16.1392 12.1242 14.7107 12.1242C13.2822 12.1242 12.1242 13.2822 12.1242 14.7107C12.1242 16.1392 13.2822 17.2972 14.7107 17.2972Z" stroke="#292D32" stroke-width="1.21242" stroke-linecap="round" stroke-linejoin="round"/>
<path d="M17.7822 17.7821L16.9739 16.9738" stroke="#292D32" stroke-width="1.21242" stroke-linecap="round" stroke-linejoin="round"/>
</svg>
