<svg width="16" height="16" viewBox="0 0 16 16" fill="none" xmlns="http://www.w3.org/2000/svg">
<rect width="15.3574" height="15.3574" rx="7.67868" fill="#0560FA"/>
<path d="M7.67868 5.43889V1.91949" stroke="white" stroke-width="0.959835" stroke-linecap="round" stroke-linejoin="round"/>
<path d="M7.67868 13.4375V9.91815" stroke="white" stroke-width="0.959835" stroke-linecap="round" stroke-linejoin="round"/>
<path d="M6.3989 1.91949H8.95846" stroke="white" stroke-width="0.959835" stroke-linecap="round" stroke-linejoin="round"/>
<path d="M6.3989 13.4376H8.95846" stroke="white" stroke-width="0.959835" stroke-linecap="round" stroke-linejoin="round"/>
<path d="M5.73979 6.55871L2.69391 4.79901" stroke="white" stroke-width="0.959835" stroke-linecap="round" stroke-linejoin="round"/>
<path d="M12.6634 10.558L9.61755 8.79834" stroke="white" stroke-width="0.959835" stroke-linecap="round" stroke-linejoin="round"/>
<path d="M2.05408 5.90603L3.33386 3.69202" stroke="white" stroke-width="0.959835" stroke-linecap="round" stroke-linejoin="round"/>
<path d="M12.0235 11.6651L13.3033 9.45105" stroke="white" stroke-width="0.959835" stroke-linecap="round" stroke-linejoin="round"/>
<path d="M9.91832 7.67852C9.91832 8.08805 9.80954 8.46558 9.61757 8.79833C9.22724 9.47021 8.50416 9.91813 7.6787 9.91813C6.85324 9.91813 6.13017 9.47021 5.73984 8.79833C5.54787 8.46558 5.43909 8.08805 5.43909 7.67852C5.43909 7.26899 5.54787 6.89145 5.73984 6.55871C6.13017 5.88683 6.85324 5.4389 7.6787 5.4389C8.50416 5.4389 9.22724 5.88683 9.61757 6.55871C9.80954 6.89145 9.91832 7.26899 9.91832 7.67852Z" stroke="white" stroke-width="0.959835" stroke-linecap="round" stroke-linejoin="round"/>
<path d="M12.6634 4.79901L9.61755 6.55871" stroke="white" stroke-width="0.959835" stroke-linecap="round" stroke-linejoin="round"/>
<path d="M5.73979 8.79834L2.69391 10.558" stroke="white" stroke-width="0.959835" stroke-linecap="round" stroke-linejoin="round"/>
<path d="M13.3033 5.90603L12.0235 3.69202" stroke="white" stroke-width="0.959835" stroke-linecap="round" stroke-linejoin="round"/>
<path d="M3.33386 11.6651L2.05408 9.45105" stroke="white" stroke-width="0.959835" stroke-linecap="round" stroke-linejoin="round"/>
</svg>
