<svg width="20" height="20" viewBox="0 0 20 20" fill="none" xmlns="http://www.w3.org/2000/svg">
<path d="M6.04596 14.8321L8.55163 16.772C8.87495 17.0953 9.6024 17.257 10.0874 17.257H13.1588C14.1288 17.257 15.1795 16.5295 15.422 15.5596L17.3619 9.6591C17.7661 8.5275 17.0386 7.55757 15.8262 7.55757H12.593C12.1081 7.55757 11.7039 7.15342 11.7848 6.58763L12.1889 4.00112C12.3506 3.27367 11.8656 2.46539 11.1381 2.2229C10.4915 1.98042 9.68323 2.30373 9.35992 2.7887L6.04596 7.71922" stroke="#292D32" stroke-width="1.21242" stroke-miterlimit="10"/>
<path d="M1.92371 14.832V6.91086C1.92371 5.77926 2.40868 5.37512 3.54027 5.37512H4.34855C5.48015 5.37512 5.96512 5.77926 5.96512 6.91086V14.832C5.96512 15.9636 5.48015 16.3678 4.34855 16.3678H3.54027C2.40868 16.3678 1.92371 15.9636 1.92371 14.832Z" stroke="#292D32" stroke-width="1.21242" stroke-linecap="round" stroke-linejoin="round"/>
</svg>
