<svg width="20" height="20" viewBox="0 0 20 20" fill="none" xmlns="http://www.w3.org/2000/svg">
<path d="M12.4556 15.0257C12.1323 15.0257 11.8656 14.759 11.8656 14.4356C11.8656 14.1123 12.1323 13.8456 12.4556 13.8456C14.735 13.8456 16.594 11.9866 16.594 9.70719C16.594 7.42784 14.735 5.56879 12.4556 5.56879C10.1763 5.56879 8.31721 7.42784 8.31721 9.70719C8.31721 10.0305 8.05047 10.2972 7.72716 10.2972C7.40385 10.2972 7.13712 10.0305 7.13712 9.70719C7.13712 6.77313 9.52155 4.38062 12.4637 4.38062C15.4058 4.38062 17.7822 6.76505 17.7822 9.69911C17.7822 12.6332 15.3978 15.0257 12.4556 15.0257Z" fill="#292D32"/>
<path d="M6.94313 4.37274C7.26644 4.37274 7.53317 4.63947 7.53317 4.96279C7.53317 5.2861 7.26644 5.55283 6.94313 5.55283C4.66377 5.55283 2.80472 7.41188 2.80472 9.69124C2.80472 11.9706 4.66377 13.8296 6.94313 13.8296C9.22248 13.8296 11.0815 11.9706 11.0815 9.69124C11.0815 9.36793 11.3483 9.10119 11.6716 9.10119C11.9949 9.10119 12.2616 9.36793 12.2616 9.69124C12.2616 12.6253 9.87719 15.0178 6.93504 15.0178C3.9929 15.0178 1.61655 12.6334 1.61655 9.69932C1.61655 6.76526 4.00098 4.37274 6.94313 4.37274Z" fill="#292D32"/>
</svg>
