<svg width="8" height="13" viewBox="0 0 8 13" fill="none" xmlns="http://www.w3.org/2000/svg">
<path d="M4 0C1.7904 0 0 1.7832 0 3.992C0 7.8112 4 12.792 4 12.792C4 12.792 8 7.8104 8 3.992C8 1.784 6.2096 0 4 0ZM4 6.2008C3.42713 6.2008 2.87773 5.97323 2.47265 5.56815C2.06757 5.16307 1.84 4.61367 1.84 4.0408C1.84 3.46793 2.06757 2.91853 2.47265 2.51345C2.87773 2.10837 3.42713 1.8808 4 1.8808C4.57287 1.8808 5.12227 2.10837 5.52735 2.51345C5.93243 2.91853 6.16 3.46793 6.16 4.0408C6.16 4.61367 5.93243 5.16307 5.52735 5.56815C5.12227 5.97323 4.57287 6.2008 4 6.2008Z" fill="#0560FA"/>
</svg>
