<svg width="20" height="20" viewBox="0 0 20 20" fill="none" xmlns="http://www.w3.org/2000/svg">
<path d="M12.9325 5.09213V4.84964C12.9325 3.06334 11.4857 1.61652 9.69941 1.61652C7.9131 1.61652 6.46628 3.06334 6.46628 4.84964V8.89106" stroke="#292D32" stroke-width="1.21242" stroke-linecap="round" stroke-linejoin="round"/>
<path d="M7.30687 11.4695C7.89692 12.1242 8.75369 12.5283 9.69938 12.5283C11.4857 12.5283 12.9325 11.0815 12.9325 9.29519V8.89105" stroke="#292D32" stroke-width="1.21242" stroke-linecap="round" stroke-linejoin="round"/>
<path d="M5.48019 13.7003C6.58754 14.7268 8.0667 15.3572 9.69943 15.3572C13.1104 15.3572 15.8828 12.5848 15.8828 9.17389V7.7998" stroke="#292D32" stroke-width="1.21242" stroke-linecap="round" stroke-linejoin="round"/>
<path d="M3.51602 7.7998V9.17389C3.51602 10.0307 3.68576 10.8389 4.00099 11.5826" stroke="#292D32" stroke-width="1.21242" stroke-linecap="round" stroke-linejoin="round"/>
<path d="M16.2222 2.29553L3.17656 15.3493" stroke="#292D32" stroke-width="1.21242" stroke-linecap="round" stroke-linejoin="round"/>
<path d="M8.89111 2.4248V4.84965" stroke="#292D32" stroke-width="1.21242" stroke-linecap="round" stroke-linejoin="round"/>
<path d="M9.6994 15.3573V17.7821" stroke="#292D32" stroke-width="1.21242" stroke-linecap="round" stroke-linejoin="round"/>
</svg>
