<svg width="20" height="20" viewBox="0 0 20 20" fill="none" xmlns="http://www.w3.org/2000/svg">
<path d="M9.6994 12.5283C11.4857 12.5283 12.9325 11.0815 12.9325 9.2952V4.84964C12.9325 3.06334 11.4857 1.61652 9.6994 1.61652C7.91309 1.61652 6.46627 3.06334 6.46627 4.84964V9.2952C6.46627 11.0815 7.91309 12.5283 9.6994 12.5283Z" stroke="#292D32" stroke-width="1.21242" stroke-linecap="round" stroke-linejoin="round"/>
<path d="M3.51602 7.7998V9.17389C3.51602 12.5848 6.28843 15.3572 9.69938 15.3572C13.1103 15.3572 15.8827 12.5848 15.8827 9.17389V7.7998" stroke="#292D32" stroke-width="1.21242" stroke-linecap="round" stroke-linejoin="round"/>
<path d="M8.57587 5.1973C9.30332 4.93057 10.0954 4.93057 10.8229 5.1973" stroke="#292D32" stroke-width="1.21242" stroke-linecap="round" stroke-linejoin="round"/>
<path d="M9.05278 6.9108C9.48117 6.79764 9.92573 6.79764 10.3541 6.9108" stroke="#292D32" stroke-width="1.21242" stroke-linecap="round" stroke-linejoin="round"/>
<path d="M9.69939 15.3573V17.7821" stroke="#292D32" stroke-width="1.21242" stroke-linecap="round" stroke-linejoin="round"/>
</svg>
