<svg width="20" height="20" viewBox="0 0 20 20" fill="none" xmlns="http://www.w3.org/2000/svg">
<path d="M9.71554 2.35242C7.04013 2.35242 4.86585 4.5267 4.86585 7.20211V9.53805C4.86585 10.0311 4.65569 10.7828 4.40513 11.2031L3.4756 12.7469C2.90172 13.7007 3.29778 14.7595 4.34855 15.1152C7.83224 16.2791 11.5908 16.2791 15.0745 15.1152C16.0525 14.7919 16.4809 13.636 15.9474 12.7469L15.0179 11.2031C14.7754 10.7828 14.5652 10.0311 14.5652 9.53805V7.20211C14.5652 4.53478 12.3829 2.35242 9.71554 2.35242Z" stroke="#292D32" stroke-width="1.21242" stroke-miterlimit="10" stroke-linecap="round"/>
<path d="M11.2109 2.58667C10.9603 2.51393 10.7016 2.45735 10.4349 2.42502C9.65896 2.32802 8.91534 2.3846 8.22021 2.58667C8.45462 1.98854 9.03658 1.56824 9.71554 1.56824C10.3945 1.56824 10.9765 1.98854 11.2109 2.58667Z" stroke="#292D32" stroke-width="1.21242" stroke-miterlimit="10" stroke-linecap="round" stroke-linejoin="round"/>
<path d="M12.1404 15.4061C12.1404 16.7398 11.0492 17.831 9.71556 17.831C9.05277 17.831 8.43847 17.5562 8.002 17.1197C7.56553 16.6832 7.29071 16.0689 7.29071 15.4061" stroke="#292D32" stroke-width="1.21242" stroke-miterlimit="10"/>
</svg>
