<svg width="30" height="27" viewBox="0 0 30 27" fill="none" xmlns="http://www.w3.org/2000/svg">
<path d="M4.09983 24.6405L5.66274 19.169C5.70685 19.0148 5.70443 18.851 5.6558 18.6982C5.60716 18.5453 5.51448 18.4102 5.38938 18.3099L1.72901 15.3817L2.83143 10.9737L5.05906 13.7586C5.13543 13.8537 5.23216 13.9305 5.34213 13.9833C5.45209 14.0361 5.57249 14.0636 5.69448 14.0637H9.76246V12.4365H6.085L3.07551 8.67363C2.9807 8.55547 2.85478 8.46614 2.71194 8.41568C2.56909 8.36522 2.415 8.35565 2.26701 8.38804C2.11902 8.42043 1.98301 8.49349 1.8743 8.599C1.7656 8.70451 1.68851 8.83828 1.65172 8.98524L0.0245228 15.494C-0.0134262 15.645 -0.00722473 15.8037 0.0423898 15.9512C0.0920044 16.0988 0.182945 16.2289 0.3044 16.3263L3.94931 19.2422L2.53447 24.1938L4.09983 24.6405ZM4.47408 7.55493C3.91088 7.55493 3.36033 7.38792 2.89205 7.07503C2.42376 6.76213 2.05878 6.3174 1.84325 5.79707C1.62773 5.27674 1.57133 4.70419 1.68121 4.15181C1.79108 3.59943 2.06229 3.09204 2.46053 2.6938C2.85877 2.29555 3.36617 2.02435 3.91854 1.91447C4.47092 1.8046 5.04348 1.86099 5.56381 2.07652C6.08413 2.29204 6.52887 2.65703 6.84176 3.12531C7.15466 3.59359 7.32167 4.14415 7.32167 4.70735C7.32081 5.46231 7.02052 6.1861 6.48668 6.71994C5.95284 7.25378 5.22904 7.55407 4.47408 7.55493ZM4.47408 3.48695C4.23271 3.48695 3.99676 3.55853 3.79607 3.69262C3.59537 3.82672 3.43895 4.01732 3.34658 4.24032C3.25421 4.46332 3.23005 4.7087 3.27714 4.94543C3.32423 5.18217 3.44046 5.39962 3.61113 5.57029C3.78181 5.74097 3.99926 5.8572 4.23599 5.90429C4.47273 5.95138 4.71811 5.92721 4.94111 5.83484C5.1641 5.74247 5.3547 5.58605 5.4888 5.38536C5.6229 5.18467 5.69448 4.94872 5.69448 4.70735C5.69405 4.38381 5.56533 4.07365 5.33655 3.84487C5.10778 3.6161 4.79762 3.48738 4.47408 3.48695Z" fill="#3A3A3A"/>
<path d="M17.9017 15.6909C17.4693 15.6909 17.0546 15.5191 16.7488 15.2133C16.4431 14.9076 16.2713 14.4928 16.2713 14.0604V12.4397C16.2713 12.0073 16.4431 11.5926 16.7488 11.2868C17.0546 10.9811 17.4693 10.8093 17.9017 10.8093H19.5257V8.3685H9.76251V10.8093H11.3865C11.8189 10.8093 12.2336 10.9811 12.5394 11.2868C12.8451 11.5926 13.0169 12.0073 13.0169 12.4397V14.0604C13.0169 14.4928 12.8451 14.9076 12.5394 15.2133C12.2336 15.5191 11.8189 15.6909 11.3865 15.6909H9.76251V18.1317H19.5257V15.6909H17.9017Z" fill="#3A3A3A"/>
<path d="M25.1883 24.6405L23.6253 19.169C23.5811 19.0148 23.5835 18.851 23.6321 18.6981C23.6808 18.5452 23.7735 18.4102 23.8987 18.3099L27.5591 15.3817L26.4575 10.9729L24.2298 13.7586C24.1534 13.8538 24.0565 13.9307 23.9464 13.9835C23.8363 14.0363 23.7157 14.0637 23.5936 14.0637H19.5256V12.4365H23.2031L26.2134 8.67363C26.3082 8.55547 26.4341 8.46614 26.577 8.41568C26.7198 8.36522 26.8739 8.35565 27.0219 8.38804C27.1699 8.42043 27.3059 8.49349 27.4146 8.599C27.5233 8.70451 27.6004 8.83828 27.6372 8.98524L29.2644 15.494C29.3023 15.645 29.2961 15.8037 29.2465 15.9512C29.1969 16.0988 29.106 16.2289 28.9845 16.3263L25.3396 19.2422L26.7536 24.1938L25.1883 24.6405ZM21.9664 4.70735C21.9664 4.14415 22.1334 3.59359 22.4463 3.12531C22.7592 2.65703 23.204 2.29204 23.7243 2.07652C24.2446 1.86099 24.8172 1.8046 25.3695 1.91447C25.9219 2.02435 26.4293 2.29555 26.8276 2.6938C27.2258 3.09204 27.497 3.59943 27.6069 4.15181C27.7168 4.70419 27.6604 5.27674 27.4448 5.79707C27.2293 6.3174 26.8643 6.76213 26.396 7.07503C25.9278 7.38792 25.3772 7.55493 24.814 7.55493C24.059 7.55407 23.3353 7.25378 22.8014 6.71994C22.2676 6.1861 21.9673 5.46231 21.9664 4.70735ZM23.5936 4.70735C23.5936 4.94872 23.6652 5.18467 23.7993 5.38536C23.9334 5.58605 24.124 5.74247 24.347 5.83484C24.57 5.92721 24.8154 5.95138 25.0521 5.90429C25.2888 5.8572 25.5063 5.74097 25.677 5.57029C25.8476 5.39962 25.9639 5.18217 26.011 4.94543C26.058 4.7087 26.0339 4.46332 25.9415 4.24032C25.8491 4.01732 25.6927 3.82672 25.492 3.69262C25.2913 3.55853 25.0554 3.48695 24.814 3.48695C24.4905 3.48738 24.1803 3.6161 23.9515 3.84487C23.7228 4.07365 23.594 4.38381 23.5936 4.70735Z" fill="#3A3A3A"/>
</svg>
