<svg width="20" height="20" viewBox="0 0 20 20" fill="none" xmlns="http://www.w3.org/2000/svg">
<path d="M6.53899 9.40023H2.74814C2.8128 5.62556 3.55642 5.00318 5.87619 3.6291C6.14293 3.46744 6.23184 3.12796 6.07018 2.85315C5.91661 2.58642 5.56905 2.4975 5.30231 2.65916C2.57032 4.27572 1.61655 5.26183 1.61655 9.95795V14.3146C1.61655 15.6968 2.74006 16.8122 4.11414 16.8122H6.53899C7.96156 16.8122 9.03658 15.7372 9.03658 14.3146V11.8897C9.03658 10.4752 7.96156 9.40023 6.53899 9.40023Z" fill="#292D32"/>
<path d="M15.2846 9.40023H11.4937C11.5584 5.62556 12.302 5.00318 14.6218 3.6291C14.8885 3.46744 14.9774 3.12796 14.8158 2.85315C14.6541 2.58642 14.3146 2.4975 14.0398 2.65916C11.3078 4.27572 10.3541 5.26183 10.3541 9.96603V14.3227C10.3541 15.7048 11.4776 16.8203 12.8517 16.8203H15.2765C16.6991 16.8203 17.7741 15.7452 17.7741 14.3227V11.8978C17.7822 10.4753 16.7072 9.40023 15.2846 9.40023Z" fill="#292D32"/>
</svg>
