<svg width="20" height="20" viewBox="0 0 20 20" fill="none" xmlns="http://www.w3.org/2000/svg">
<path d="M12.8598 9.99834H16.6507C16.586 13.773 15.8424 14.3954 13.5226 15.7695C13.2559 15.9311 13.167 16.2706 13.3286 16.5454C13.4903 16.8122 13.8297 16.9011 14.1046 16.7394C16.8366 15.1228 17.7903 14.1367 17.7903 9.43254V5.0759C17.7903 3.69374 16.6668 2.57831 15.2927 2.57831H12.8679C11.4453 2.57831 10.3703 3.65332 10.3703 5.0759V7.50075C10.3622 8.92332 11.4372 9.99834 12.8598 9.99834Z" fill="#292D32"/>
<path d="M4.11418 9.99834H7.90503C7.84036 13.773 7.09675 14.3954 4.77698 15.7695C4.51024 15.9311 4.42133 16.2706 4.58299 16.5454C4.74464 16.8122 5.08412 16.9011 5.35894 16.7394C8.09093 15.1228 9.04471 14.1367 9.04471 9.43254V5.0759C9.04471 3.69374 7.92119 2.57831 6.54711 2.57831H4.12227C2.69161 2.57831 1.61659 3.65332 1.61659 5.0759V7.50075C1.61659 8.92332 2.69161 9.99834 4.11418 9.99834Z" fill="#292D32"/>
</svg>
