<svg width="20" height="20" viewBox="0 0 20 20" fill="none" xmlns="http://www.w3.org/2000/svg">
<path d="M9.6994 6.87017V2.42462" stroke="#292D32" stroke-width="1.21242" stroke-linecap="round" stroke-linejoin="round"/>
<path d="M9.6994 16.9738V12.5282" stroke="#292D32" stroke-width="1.21242" stroke-linecap="round" stroke-linejoin="round"/>
<path d="M8.08282 2.42462H11.316" stroke="#292D32" stroke-width="1.21242" stroke-linecap="round" stroke-linejoin="round"/>
<path d="M8.08282 16.9738H11.316" stroke="#292D32" stroke-width="1.21242" stroke-linecap="round" stroke-linejoin="round"/>
<path d="M7.25032 8.28467L3.40289 6.06189" stroke="#292D32" stroke-width="1.21242" stroke-linecap="round" stroke-linejoin="round"/>
<path d="M15.9959 13.3365L12.1485 11.1137" stroke="#292D32" stroke-width="1.21242" stroke-linecap="round" stroke-linejoin="round"/>
<path d="M2.5946 7.46028L4.21117 4.66364" stroke="#292D32" stroke-width="1.21242" stroke-linecap="round" stroke-linejoin="round"/>
<path d="M15.1876 14.7348L16.8042 11.9382" stroke="#292D32" stroke-width="1.21242" stroke-linecap="round" stroke-linejoin="round"/>
<path d="M12.5284 9.69917C12.5284 10.2165 12.391 10.6934 12.1485 11.1137C11.6555 11.9624 10.7421 12.5282 9.69941 12.5282C8.65673 12.5282 7.74337 11.9624 7.25032 11.1137C7.00783 10.6934 6.87042 10.2165 6.87042 9.69917C6.87042 9.18187 7.00783 8.70498 7.25032 8.28467C7.74337 7.43598 8.65673 6.87018 9.69941 6.87018C10.7421 6.87018 11.6555 7.43598 12.1485 8.28467C12.391 8.70498 12.5284 9.18187 12.5284 9.69917Z" stroke="#292D32" stroke-width="1.21242" stroke-linecap="round" stroke-linejoin="round"/>
<path d="M15.9959 6.06189L12.1485 8.28467" stroke="#292D32" stroke-width="1.21242" stroke-linecap="round" stroke-linejoin="round"/>
<path d="M7.25032 11.1137L3.40289 13.3365" stroke="#292D32" stroke-width="1.21242" stroke-linecap="round" stroke-linejoin="round"/>
<path d="M16.8042 7.46028L15.1876 4.66364" stroke="#292D32" stroke-width="1.21242" stroke-linecap="round" stroke-linejoin="round"/>
<path d="M4.21117 14.7348L2.5946 11.9382" stroke="#292D32" stroke-width="1.21242" stroke-linecap="round" stroke-linejoin="round"/>
</svg>
