<svg width="20" height="20" viewBox="0 0 20 20" fill="none" xmlns="http://www.w3.org/2000/svg">
<path d="M16.9739 4.24343H2.42482C2.09342 4.24343 1.8186 3.96861 1.8186 3.63722C1.8186 3.30582 2.09342 3.03101 2.42482 3.03101H16.9739C17.3053 3.03101 17.5801 3.30582 17.5801 3.63722C17.5801 3.96861 17.3053 4.24343 16.9739 4.24343Z" fill="#292D32"/>
<path d="M16.9739 8.28487H2.42482C2.09342 8.28487 1.8186 8.01006 1.8186 7.67866C1.8186 7.34726 2.09342 7.07245 2.42482 7.07245H16.9739C17.3053 7.07245 17.5801 7.34726 17.5801 7.67866C17.5801 8.01006 17.3053 8.28487 16.9739 8.28487Z" fill="#292D32"/>
<path d="M16.9739 12.3263H2.42482C2.09342 12.3263 1.8186 12.0514 1.8186 11.72C1.8186 11.3886 2.09342 11.1138 2.42482 11.1138H16.9739C17.3053 11.1138 17.5801 11.3886 17.5801 11.72C17.5801 12.0514 17.3053 12.3263 16.9739 12.3263Z" fill="#292D32"/>
<path d="M16.9739 16.3677H2.42482C2.09342 16.3677 1.8186 16.0929 1.8186 15.7615C1.8186 15.4301 2.09342 15.1553 2.42482 15.1553H16.9739C17.3053 15.1553 17.5801 15.4301 17.5801 15.7615C17.5801 16.0929 17.3053 16.3677 16.9739 16.3677Z" fill="#292D32"/>
</svg>
