<svg width="20" height="20" viewBox="0 0 20 20" fill="none" xmlns="http://www.w3.org/2000/svg">
<path d="M12.1242 1.61652V9.69934C12.1242 10.5884 11.3968 11.3159 10.5077 11.3159H1.61658V4.84964C1.61658 3.06334 3.0634 1.61652 4.84971 1.61652H12.1242Z" stroke="#292D32" stroke-width="1.21242" stroke-linecap="round" stroke-linejoin="round"/>
<path d="M17.7822 11.3159V13.7408C17.7822 15.0825 16.6991 16.1656 15.3574 16.1656H14.5491C14.5491 15.2765 13.8216 14.5491 12.9325 14.5491C12.0434 14.5491 11.316 15.2765 11.316 16.1656H8.08283C8.08283 15.2765 7.35538 14.5491 6.46627 14.5491C5.57716 14.5491 4.84971 15.2765 4.84971 16.1656H4.04142C2.69968 16.1656 1.61658 15.0825 1.61658 13.7408V11.3159H10.5077C11.3968 11.3159 12.1242 10.5885 12.1242 9.69936V4.04138H13.6115C14.1934 4.04138 14.7269 4.35662 15.0179 4.85775L16.4001 7.27451H15.3574C14.9128 7.27451 14.5491 7.63824 14.5491 8.08279V10.5076C14.5491 10.9522 14.9128 11.3159 15.3574 11.3159H17.7822Z" stroke="#292D32" stroke-width="1.21242" stroke-linecap="round" stroke-linejoin="round"/>
<path d="M6.46627 17.7821C7.35907 17.7821 8.08283 17.0584 8.08283 16.1656C8.08283 15.2728 7.35907 14.549 6.46627 14.549C5.57346 14.549 4.8497 15.2728 4.8497 16.1656C4.8497 17.0584 5.57346 17.7821 6.46627 17.7821Z" stroke="#292D32" stroke-width="1.21242" stroke-linecap="round" stroke-linejoin="round"/>
<path d="M12.9325 17.7821C13.8253 17.7821 14.5491 17.0584 14.5491 16.1656C14.5491 15.2728 13.8253 14.549 12.9325 14.549C12.0397 14.549 11.3159 15.2728 11.3159 16.1656C11.3159 17.0584 12.0397 17.7821 12.9325 17.7821Z" stroke="#292D32" stroke-width="1.21242" stroke-linecap="round" stroke-linejoin="round"/>
<path d="M17.7822 9.69932V11.3159H15.3574C14.9128 11.3159 14.5491 10.9522 14.5491 10.5076V8.08276C14.5491 7.6382 14.9128 7.27448 15.3574 7.27448H16.4L17.7822 9.69932Z" stroke="#292D32" stroke-width="1.21242" stroke-linecap="round" stroke-linejoin="round"/>
</svg>
