<svg width="20" height="20" viewBox="0 0 20 20" fill="none" xmlns="http://www.w3.org/2000/svg">
<path d="M6.77341 9.69939L8.72137 11.6554L12.6254 7.74335" stroke="#292D32" stroke-width="1.21242" stroke-linecap="round" stroke-linejoin="round"/>
<path d="M8.68903 1.98028C9.24675 1.5034 10.1601 1.5034 10.7259 1.98028L12.003 3.07955C12.2455 3.2897 12.6981 3.45944 13.0214 3.45944H14.3955C15.2523 3.45944 15.9555 4.16265 15.9555 5.01943V6.39351C15.9555 6.70874 16.1252 7.16946 16.3354 7.41194L17.4346 8.68903C17.9115 9.24674 17.9115 10.1601 17.4346 10.7259L16.3354 12.003C16.1252 12.2455 15.9555 12.6981 15.9555 13.0214V14.3955C15.9555 15.2523 15.2523 15.9555 14.3955 15.9555H13.0214C12.7062 15.9555 12.2455 16.1252 12.003 16.3354L10.7259 17.4346C10.1682 17.9115 9.25483 17.9115 8.68903 17.4346L7.41195 16.3354C7.16946 16.1252 6.71682 15.9555 6.39351 15.9555H4.99518C4.1384 15.9555 3.4352 15.2523 3.4352 14.3955V13.0133C3.4352 12.6981 3.26546 12.2455 3.06339 12.003L1.97221 10.7178C1.5034 10.1601 1.5034 9.25483 1.97221 8.69711L3.06339 7.41194C3.26546 7.16946 3.4352 6.71682 3.4352 6.40159V5.01134C3.4352 4.15456 4.1384 3.45136 4.99518 3.45136H6.39351C6.70874 3.45136 7.16946 3.28162 7.41195 3.07147L8.68903 1.98028Z" stroke="#292D32" stroke-width="1.21242" stroke-linecap="round" stroke-linejoin="round"/>
</svg>
