<svg width="20" height="20" viewBox="0 0 20 20" fill="none" xmlns="http://www.w3.org/2000/svg">
<path d="M10.1278 16.505H5.01945C2.46528 16.505 1.61658 14.8076 1.61658 13.1021V6.29636C1.61658 3.74219 2.46528 2.89349 5.01945 2.89349H10.1278C12.682 2.89349 13.5307 3.74219 13.5307 6.29636V13.1021C13.5307 15.6563 12.6739 16.505 10.1278 16.505Z" stroke="#292D32" stroke-width="1.21242" stroke-linecap="round" stroke-linejoin="round"/>
<path d="M15.7777 13.8215L13.5307 12.2454V7.14511L15.7777 5.56896C16.8769 4.80109 17.7822 5.2699 17.7822 6.61973V12.7788C17.7822 14.1287 16.8769 14.5975 15.7777 13.8215Z" stroke="#292D32" stroke-width="1.21242" stroke-linecap="round" stroke-linejoin="round"/>
<path d="M9.29526 8.89091C9.96487 8.89091 10.5077 8.34809 10.5077 7.67849C10.5077 7.00888 9.96487 6.46606 9.29526 6.46606C8.62566 6.46606 8.08284 7.00888 8.08284 7.67849C8.08284 8.34809 8.62566 8.89091 9.29526 8.89091Z" stroke="#292D32" stroke-width="1.21242" stroke-linecap="round" stroke-linejoin="round"/>
</svg>
