<svg width="20" height="20" viewBox="0 0 20 20" fill="none" xmlns="http://www.w3.org/2000/svg">
<path d="M10.5077 9.01245H5.65799" stroke="#292D32" stroke-width="1.21242" stroke-linecap="round" stroke-linejoin="round"/>
<path d="M1.61658 9.01242V5.27816C1.61658 3.62926 2.95024 2.29559 4.59914 2.29559H9.14168C10.7906 2.29559 12.1242 3.32211 12.1242 4.97101" stroke="#292D32" stroke-width="1.21242" stroke-linecap="round" stroke-linejoin="round"/>
<path d="M14.1288 9.86117C13.7246 10.2491 13.5307 10.8473 13.6923 11.4615C13.8944 12.2133 14.638 12.6902 15.414 12.6902H16.1657V13.8622C16.1657 15.6485 14.7188 17.0953 12.9325 17.0953H4.84971C3.0634 17.0953 1.61658 15.6485 1.61658 13.8622V8.2042C1.61658 6.41789 3.0634 4.97107 4.84971 4.97107H12.9325C14.7107 4.97107 16.1657 6.42598 16.1657 8.2042V9.37617H15.2927C14.8401 9.37617 14.4278 9.55402 14.1288 9.86117Z" stroke="#292D32" stroke-width="1.21242" stroke-linecap="round" stroke-linejoin="round"/>
<path d="M17.7822 10.2008V11.8659C17.7822 12.3185 17.4104 12.6903 16.9497 12.6903H15.3897C14.5167 12.6903 13.7166 12.0518 13.6438 11.1788C13.5953 10.6696 13.7893 10.1927 14.1288 9.86134C14.4278 9.55419 14.8401 9.37634 15.2927 9.37634H16.9497C17.4104 9.37634 17.7822 9.74817 17.7822 10.2008Z" stroke="#292D32" stroke-width="1.21242" stroke-linecap="round" stroke-linejoin="round"/>
</svg>
