<svg width="20" height="20" viewBox="0 0 20 20" fill="none" xmlns="http://www.w3.org/2000/svg">
<path d="M17.7822 10.2005V11.8656C17.7822 12.3182 17.4104 12.6901 16.9496 12.6901H15.3896C14.5167 12.6901 13.7165 12.0515 13.6438 11.1786C13.5953 10.6693 13.7892 10.1925 14.1287 9.86107C14.4278 9.55392 14.84 9.3761 15.2927 9.3761H16.9496C17.4104 9.3761 17.7822 9.74791 17.7822 10.2005Z" fill="#292D32"/>
<path d="M12.4314 11.2835C12.3586 10.4348 12.6658 9.60228 13.2801 8.99607C13.7974 8.47069 14.5167 8.16354 15.2927 8.16354H15.7534C15.9797 8.16354 16.1656 7.97763 16.1333 7.75132C15.9151 6.18325 14.5571 4.97083 12.9325 4.97083H4.84968C3.06337 4.97083 1.61655 6.41765 1.61655 8.20395V13.8619C1.61655 15.6482 3.06337 17.0951 4.84968 17.0951H12.9325C14.5652 17.0951 15.9151 15.8826 16.1333 14.3146C16.1656 14.0882 15.9797 13.9023 15.7534 13.9023H15.3897C13.8539 13.9023 12.5607 12.7546 12.4314 11.2835ZM10.5077 9.61845H5.65796C5.32656 9.61845 5.05175 9.35171 5.05175 9.01224C5.05175 8.67276 5.32656 8.40602 5.65796 8.40602H10.5077C10.839 8.40602 11.1139 8.68084 11.1139 9.01224C11.1139 9.34363 10.839 9.61845 10.5077 9.61845Z" fill="#292D32"/>
<path d="M11.4857 3.21701C11.6958 3.43525 11.5099 3.75856 11.2028 3.75856H4.87394C3.99291 3.75856 3.16846 4.01721 2.48142 4.46176C2.16619 4.66383 1.7378 4.4456 1.89138 4.09804C2.34402 3.03919 3.40287 2.30365 4.62337 2.30365H9.16592C10.1035 2.30365 10.9361 2.63505 11.4857 3.21701Z" fill="#292D32"/>
</svg>
